<?xml version="1.0" encoding="utf-8"?>
<!-- Generator: Adobe Illustrator 21.0.0, SVG Export Plug-In . SVG Version: 6.00 Build 0)  -->
<svg version="1.1" id="Capa_1" xmlns="http://www.w3.org/2000/svg" xmlns:xlink="http://www.w3.org/1999/xlink" x="0px" y="0px"
	 viewBox="0 0 158 48" style="enable-background:new 0 0 158 48;" xml:space="preserve">
<style type="text/css">
	.st0{fill:#65707F;}
	.st1{fill:#334155;}
	.st2{fill:#65707F;stroke:#FFFFFF;stroke-width:0.2056;stroke-miterlimit:10;}
	.st3{fill:#FFFFFF;}
	.st4{fill:#65707F;stroke:#334155;stroke-width:0.2056;stroke-miterlimit:10;}
</style>
<g>
	<g>
		<g>
			<g>
				<path class="st0" d="M58.8,19.3c-0.3-0.1-0.5-0.4-0.6-0.6c-0.2-0.3-0.2-0.6-0.2-0.9c0-0.3,0.1-0.6,0.2-0.9
					c0.2-0.3,0.4-0.5,0.6-0.6c0.3-0.1,0.6-0.2,0.9-0.2c0.3,0,0.5,0,0.7,0.1c0.2,0.1,0.4,0.2,0.6,0.4l-0.3,0.3
					c-0.3-0.3-0.6-0.4-0.9-0.4c-0.2,0-0.5,0.1-0.7,0.2c-0.2,0.1-0.4,0.3-0.5,0.5s-0.2,0.4-0.2,0.7c0,0.2,0.1,0.5,0.2,0.7
					c0.1,0.2,0.3,0.4,0.5,0.5c0.2,0.1,0.4,0.2,0.7,0.2c0.4,0,0.7-0.1,0.9-0.4L61,19c-0.2,0.2-0.3,0.3-0.6,0.4
					c-0.2,0.1-0.5,0.1-0.7,0.1C59.4,19.5,59.1,19.5,58.8,19.3z"/>
				<path class="st0" d="M62.2,19.3c-0.3-0.1-0.5-0.4-0.6-0.6c-0.2-0.3-0.2-0.6-0.2-0.9c0-0.3,0.1-0.6,0.2-0.9
					c0.2-0.3,0.4-0.5,0.6-0.6s0.6-0.2,0.9-0.2c0.3,0,0.6,0.1,0.9,0.2c0.3,0.1,0.5,0.4,0.6,0.6c0.2,0.3,0.2,0.6,0.2,0.9
					c0,0.3-0.1,0.6-0.2,0.9c-0.2,0.3-0.4,0.5-0.6,0.6c-0.3,0.1-0.6,0.2-0.9,0.2C62.8,19.5,62.5,19.5,62.2,19.3z M63.8,19
					c0.2-0.1,0.4-0.3,0.5-0.5c0.1-0.2,0.2-0.4,0.2-0.7c0-0.2-0.1-0.5-0.2-0.7s-0.3-0.4-0.5-0.5c-0.2-0.1-0.4-0.2-0.7-0.2
					c-0.2,0-0.5,0.1-0.7,0.2c-0.2,0.1-0.4,0.3-0.5,0.5s-0.2,0.4-0.2,0.7c0,0.2,0.1,0.5,0.2,0.7c0.1,0.2,0.3,0.4,0.5,0.5
					c0.2,0.1,0.4,0.2,0.7,0.2C63.4,19.1,63.6,19.1,63.8,19z"/>
				<path class="st0" d="M68.8,19.5l0-2.4l-1.2,2h-0.2l-1.2-2v2.4h-0.5v-3.4h0.4l1.4,2.4l1.4-2.4h0.4l0,3.4H68.8z"/>
				<path class="st0" d="M72.6,16.5c0.2,0.2,0.4,0.5,0.4,0.9c0,0.4-0.1,0.7-0.4,0.9c-0.2,0.2-0.6,0.3-1,0.3h-0.8v1h-0.5v-3.4h1.3
					C72,16.1,72.3,16.3,72.6,16.5z M72.2,17.9c0.2-0.1,0.2-0.3,0.2-0.6c0-0.2-0.1-0.4-0.2-0.6c-0.2-0.1-0.4-0.2-0.7-0.2h-0.8v1.5
					h0.8C71.9,18.1,72.1,18,72.2,17.9z"/>
				<path class="st0" d="M75.6,18.7h-1.8l-0.4,0.8H73l1.5-3.4H75l1.5,3.4H76L75.6,18.7z M75.5,18.3l-0.7-1.6L74,18.3H75.5z"/>
				<path class="st0" d="M79.9,16.1v3.4h-0.4l-2-2.5v2.5H77v-3.4h0.4l2,2.5v-2.5H79.9z M78.6,15.8c-0.1,0-0.1-0.1-0.2-0.1
					c0,0-0.1-0.1-0.1-0.1s-0.1,0-0.1,0c-0.1,0-0.1,0-0.2,0.1c0,0.1-0.1,0.1-0.1,0.2h-0.3c0-0.2,0.1-0.3,0.1-0.4
					c0.1-0.1,0.2-0.2,0.3-0.2c0.1,0,0.1,0,0.2,0.1c0.1,0,0.1,0.1,0.2,0.1c0.1,0,0.1,0.1,0.1,0.1c0,0,0.1,0,0.1,0
					c0.1,0,0.1,0,0.2-0.1c0-0.1,0.1-0.1,0.1-0.2h0.3c0,0.2-0.1,0.3-0.1,0.4c-0.1,0.1-0.2,0.2-0.3,0.2C78.7,15.9,78.6,15.8,78.6,15.8
					z"/>
				<path class="st0" d="M81.4,15.3H82l-0.8,0.6h-0.4L81.4,15.3z M80.9,16.1h0.5v3.4h-0.5V16.1z"/>
				<path class="st0" d="M84.5,18.7h-1.8l-0.4,0.8h-0.5l1.5-3.4h0.5l1.5,3.4h-0.5L84.5,18.7z M84.4,18.3l-0.7-1.6l-0.7,1.6H84.4z"/>
				<path class="st0" d="M87.2,16.1h1.4c0.4,0,0.7,0.1,0.9,0.2s0.5,0.3,0.6,0.6c0.2,0.3,0.2,0.5,0.2,0.9c0,0.3-0.1,0.6-0.2,0.9
					c-0.2,0.3-0.4,0.5-0.6,0.6s-0.6,0.2-0.9,0.2h-1.4V16.1z M88.6,19.1c0.3,0,0.5-0.1,0.7-0.2c0.2-0.1,0.4-0.3,0.5-0.4
					c0.1-0.2,0.2-0.4,0.2-0.7c0-0.2-0.1-0.5-0.2-0.7c-0.1-0.2-0.3-0.3-0.5-0.4c-0.2-0.1-0.4-0.2-0.7-0.2h-0.9v2.5H88.6z"/>
				<path class="st0" d="M93.6,19.1v0.4h-2.4v-3.4h2.4v0.4h-1.9v1h1.7V18h-1.7v1.1H93.6z"/>
				<path class="st0" d="M96.3,16.6h-1.2v-0.4H98v0.4h-1.2v2.9h-0.5V16.6z"/>
				<path class="st0" d="M100.7,19.5l-0.7-1c-0.1,0-0.2,0-0.2,0H99v1h-0.5v-3.4h1.3c0.4,0,0.8,0.1,1,0.3c0.2,0.2,0.4,0.5,0.4,0.9
					c0,0.3-0.1,0.5-0.2,0.7c-0.1,0.2-0.3,0.3-0.5,0.4l0.8,1.1H100.7z M100.5,17.9c0.2-0.1,0.2-0.3,0.2-0.6c0-0.2-0.1-0.4-0.2-0.6
					c-0.2-0.1-0.4-0.2-0.7-0.2H99v1.5h0.8C100.1,18.1,100.3,18,100.5,17.9z"/>
				<path class="st0" d="M104.1,18.7h-1.8l-0.4,0.8h-0.5l1.5-3.4h0.5l1.5,3.4h-0.5L104.1,18.7z M103.9,18.3l-0.7-1.6l-0.7,1.6H103.9
					z"/>
				<path class="st0" d="M108.4,16.1v3.4H108l-2-2.5v2.5h-0.5v-3.4h0.4l2,2.5v-2.5H108.4z"/>
				<path class="st0" d="M109.6,19.4c-0.2-0.1-0.4-0.2-0.6-0.3l0.2-0.4c0.1,0.1,0.3,0.2,0.5,0.3c0.2,0.1,0.4,0.1,0.6,0.1
					c0.3,0,0.5,0,0.6-0.1c0.1-0.1,0.2-0.2,0.2-0.4c0-0.1,0-0.2-0.1-0.3c-0.1-0.1-0.2-0.1-0.3-0.2c-0.1,0-0.3-0.1-0.5-0.1
					c-0.3-0.1-0.5-0.1-0.6-0.2c-0.2-0.1-0.3-0.2-0.4-0.3c-0.1-0.1-0.2-0.3-0.2-0.5c0-0.2,0-0.3,0.1-0.5c0.1-0.1,0.2-0.3,0.4-0.3
					c0.2-0.1,0.4-0.1,0.7-0.1c0.2,0,0.4,0,0.6,0.1c0.2,0.1,0.4,0.1,0.5,0.2l-0.2,0.4c-0.1-0.1-0.3-0.2-0.5-0.2
					c-0.2,0-0.3-0.1-0.5-0.1c-0.3,0-0.5,0-0.6,0.1c-0.1,0.1-0.2,0.2-0.2,0.4c0,0.1,0,0.2,0.1,0.3c0.1,0.1,0.2,0.1,0.3,0.2
					c0.1,0,0.3,0.1,0.5,0.1c0.3,0.1,0.5,0.1,0.6,0.2c0.2,0.1,0.3,0.2,0.4,0.3c0.1,0.1,0.2,0.3,0.2,0.5c0,0.2,0,0.3-0.1,0.5
					s-0.2,0.3-0.4,0.3c-0.2,0.1-0.4,0.1-0.7,0.1C110.1,19.5,109.9,19.5,109.6,19.4z"/>
				<path class="st0" d="M114.7,16.5c0.2,0.2,0.4,0.5,0.4,0.9c0,0.4-0.1,0.7-0.4,0.9c-0.2,0.2-0.6,0.3-1,0.3h-0.8v1h-0.5v-3.4h1.3
					C114.1,16.1,114.5,16.3,114.7,16.5z M114.4,17.9c0.2-0.1,0.2-0.3,0.2-0.6c0-0.2-0.1-0.4-0.2-0.6c-0.2-0.1-0.4-0.2-0.7-0.2h-0.8
					v1.5h0.8C114,18.1,114.2,18,114.4,17.9z"/>
				<path class="st0" d="M116.4,19.3c-0.3-0.1-0.5-0.4-0.6-0.6c-0.2-0.3-0.2-0.6-0.2-0.9c0-0.3,0.1-0.6,0.2-0.9
					c0.2-0.3,0.4-0.5,0.6-0.6c0.3-0.1,0.6-0.2,0.9-0.2c0.3,0,0.6,0.1,0.9,0.2c0.3,0.1,0.5,0.4,0.6,0.6c0.2,0.3,0.2,0.6,0.2,0.9
					c0,0.3-0.1,0.6-0.2,0.9c-0.2,0.3-0.4,0.5-0.6,0.6c-0.3,0.1-0.6,0.2-0.9,0.2C117,19.5,116.7,19.5,116.4,19.3z M118,19
					c0.2-0.1,0.4-0.3,0.5-0.5c0.1-0.2,0.2-0.4,0.2-0.7c0-0.2-0.1-0.5-0.2-0.7s-0.3-0.4-0.5-0.5c-0.2-0.1-0.4-0.2-0.7-0.2
					c-0.2,0-0.5,0.1-0.7,0.2c-0.2,0.1-0.4,0.3-0.5,0.5s-0.2,0.4-0.2,0.7c0,0.2,0.1,0.5,0.2,0.7c0.1,0.2,0.3,0.4,0.5,0.5
					c0.2,0.1,0.4,0.2,0.7,0.2C117.6,19.1,117.8,19.1,118,19z"/>
				<path class="st0" d="M122.1,19.5l-0.7-1c-0.1,0-0.2,0-0.2,0h-0.8v1h-0.5v-3.4h1.3c0.4,0,0.8,0.1,1,0.3c0.2,0.2,0.4,0.5,0.4,0.9
					c0,0.3-0.1,0.5-0.2,0.7c-0.1,0.2-0.3,0.3-0.5,0.4l0.8,1.1H122.1z M121.8,17.9c0.2-0.1,0.2-0.3,0.2-0.6c0-0.2-0.1-0.4-0.2-0.6
					c-0.2-0.1-0.4-0.2-0.7-0.2h-0.8v1.5h0.8C121.5,18.1,121.7,18,121.8,17.9z"/>
				<path class="st0" d="M124,16.6h-1.2v-0.4h2.8v0.4h-1.2v2.9H124V16.6z"/>
				<path class="st0" d="M128.6,19.1v0.4h-2.4v-3.4h2.4v0.4h-1.9v1h1.7V18h-1.7v1.1H128.6z"/>
				<path class="st0" d="M133,16.5c0.2,0.2,0.4,0.5,0.4,0.9c0,0.4-0.1,0.7-0.4,0.9c-0.2,0.2-0.6,0.3-1,0.3h-0.8v1h-0.5v-3.4h1.3
					C132.4,16.1,132.7,16.3,133,16.5z M132.6,17.9c0.2-0.1,0.2-0.3,0.2-0.6c0-0.2-0.1-0.4-0.2-0.6c-0.2-0.1-0.4-0.2-0.7-0.2h-0.8
					v1.5h0.8C132.2,18.1,132.4,18,132.6,17.9z"/>
				<path class="st0" d="M136.5,19.1v0.4H134v-3.4h2.4v0.4h-1.9v1h1.7V18h-1.7v1.1H136.5z"/>
				<path class="st0" d="M137.5,19.4c-0.2-0.1-0.4-0.2-0.6-0.3l0.2-0.4c0.1,0.1,0.3,0.2,0.5,0.3c0.2,0.1,0.4,0.1,0.6,0.1
					c0.3,0,0.5,0,0.6-0.1c0.1-0.1,0.2-0.2,0.2-0.4c0-0.1,0-0.2-0.1-0.3c-0.1-0.1-0.2-0.1-0.3-0.2c-0.1,0-0.3-0.1-0.5-0.1
					c-0.3-0.1-0.5-0.1-0.6-0.2c-0.2-0.1-0.3-0.2-0.4-0.3c-0.1-0.1-0.2-0.3-0.2-0.5c0-0.2,0-0.3,0.1-0.5c0.1-0.1,0.2-0.3,0.4-0.3
					c0.2-0.1,0.4-0.1,0.7-0.1c0.2,0,0.4,0,0.6,0.1c0.2,0.1,0.4,0.1,0.5,0.2l-0.2,0.4c-0.1-0.1-0.3-0.2-0.5-0.2
					c-0.2,0-0.3-0.1-0.5-0.1c-0.3,0-0.5,0-0.6,0.1c-0.1,0.1-0.2,0.2-0.2,0.4c0,0.1,0,0.2,0.1,0.3c0.1,0.1,0.2,0.1,0.3,0.2
					c0.1,0,0.3,0.1,0.5,0.1c0.3,0.1,0.5,0.1,0.6,0.2c0.2,0.1,0.3,0.2,0.4,0.3c0.1,0.1,0.2,0.3,0.2,0.5c0,0.2,0,0.3-0.1,0.5
					s-0.2,0.3-0.4,0.3c-0.2,0.1-0.4,0.1-0.7,0.1C138,19.5,137.7,19.5,137.5,19.4z"/>
				<path class="st0" d="M142.4,18.7h-1.8l-0.4,0.8h-0.5l1.5-3.4h0.5l1.5,3.4h-0.5L142.4,18.7z M142.2,18.3l-0.7-1.6l-0.7,1.6H142.2
					z"/>
				<path class="st0" d="M143.7,16.1h1.4c0.4,0,0.7,0.1,0.9,0.2c0.3,0.1,0.5,0.3,0.6,0.6c0.2,0.3,0.2,0.5,0.2,0.9
					c0,0.3-0.1,0.6-0.2,0.9c-0.2,0.3-0.4,0.5-0.6,0.6c-0.3,0.1-0.6,0.2-0.9,0.2h-1.4V16.1z M145.1,19.1c0.3,0,0.5-0.1,0.7-0.2
					c0.2-0.1,0.4-0.3,0.5-0.4c0.1-0.2,0.2-0.4,0.2-0.7c0-0.2-0.1-0.5-0.2-0.7c-0.1-0.2-0.3-0.3-0.5-0.4c-0.2-0.1-0.4-0.2-0.7-0.2
					h-0.9v2.5H145.1z"/>
				<path class="st0" d="M148.3,19.3c-0.3-0.1-0.5-0.4-0.6-0.6c-0.2-0.3-0.2-0.6-0.2-0.9c0-0.3,0.1-0.6,0.2-0.9
					c0.2-0.3,0.4-0.5,0.6-0.6c0.3-0.1,0.6-0.2,0.9-0.2c0.3,0,0.6,0.1,0.9,0.2c0.3,0.1,0.5,0.4,0.6,0.6c0.2,0.3,0.2,0.6,0.2,0.9
					c0,0.3-0.1,0.6-0.2,0.9c-0.2,0.3-0.4,0.5-0.6,0.6c-0.3,0.1-0.6,0.2-0.9,0.2C148.9,19.5,148.6,19.5,148.3,19.3z M149.9,19
					c0.2-0.1,0.4-0.3,0.5-0.5c0.1-0.2,0.2-0.4,0.2-0.7c0-0.2-0.1-0.5-0.2-0.7c-0.1-0.2-0.3-0.4-0.5-0.5c-0.2-0.1-0.4-0.2-0.7-0.2
					c-0.2,0-0.5,0.1-0.7,0.2c-0.2,0.1-0.4,0.3-0.5,0.5c-0.1,0.2-0.2,0.4-0.2,0.7c0,0.2,0.1,0.5,0.2,0.7c0.1,0.2,0.3,0.4,0.5,0.5
					c0.2,0.1,0.4,0.2,0.7,0.2C149.5,19.1,149.7,19.1,149.9,19z"/>
			</g>
			<g>
				<path class="st0" d="M64.5,30c-0.5,0-1.1-0.1-1.5-0.3c-0.5-0.2-0.9-0.4-1.2-0.8c-0.3-0.3-0.6-0.7-0.8-1.2
					c-0.2-0.4-0.3-0.9-0.3-1.5c0-0.5,0.1-1,0.3-1.5c0.2-0.4,0.5-0.8,0.8-1.2c0.3-0.3,0.8-0.6,1.2-0.8c0.5-0.2,1-0.3,1.5-0.3
					c0.6,0,1.1,0.1,1.6,0.3c0.5,0.2,0.9,0.5,1.2,0.9l-0.9,0.8c-0.3-0.3-0.5-0.5-0.9-0.6c-0.3-0.1-0.7-0.2-1-0.2
					c-0.4,0-0.7,0.1-1,0.2c-0.3,0.1-0.6,0.3-0.8,0.5c-0.2,0.2-0.4,0.5-0.5,0.8c-0.1,0.3-0.2,0.6-0.2,1c0,0.4,0.1,0.7,0.2,1
					s0.3,0.6,0.5,0.8c0.2,0.2,0.5,0.4,0.8,0.5c0.3,0.1,0.7,0.2,1,0.2c0.4,0,0.7-0.1,1-0.2c0.3-0.1,0.6-0.4,0.9-0.6l0.9,0.8
					c-0.3,0.4-0.7,0.7-1.2,0.9C65.6,29.9,65.1,30,64.5,30z"/>
				<path class="st0" d="M68.6,29.9v-7.1h1.3v7.1H68.6z"/>
				<path class="st0" d="M74.9,30c-1,0-1.7-0.3-2.3-0.8c-0.6-0.6-0.8-1.3-0.8-2.4v-4h1.3v4c0,0.7,0.2,1.3,0.5,1.6
					c0.3,0.3,0.8,0.5,1.3,0.5s1-0.2,1.3-0.5c0.3-0.3,0.5-0.9,0.5-1.6v-4H78v4c0,1-0.3,1.8-0.8,2.4C76.7,29.7,75.9,30,74.9,30z"/>
				<path class="st0" d="M79.9,29.9v-7.1H83c0.8,0,1.5,0.1,2,0.4c0.6,0.3,1,0.7,1.4,1.2c0.3,0.5,0.5,1.2,0.5,1.9
					c0,0.7-0.2,1.3-0.5,1.9c-0.3,0.5-0.8,1-1.4,1.3c-0.6,0.3-1.3,0.4-2,0.4H79.9z M81.2,28.8H83c0.5,0,1-0.1,1.4-0.3
					c0.4-0.2,0.7-0.5,0.9-0.9c0.2-0.4,0.3-0.8,0.3-1.3c0-0.5-0.1-0.9-0.3-1.3c-0.2-0.4-0.5-0.6-0.9-0.9C84,24,83.5,23.9,83,23.9
					h-1.7V28.8z"/>
				<path class="st0" d="M87.2,29.9l3.2-7.1h1.3l3.2,7.1h-1.4l-2.8-6.4h0.5l-2.8,6.4H87.2z M88.7,28.3l0.4-1h3.9l0.4,1H88.7z"/>
				<path class="st0" d="M95.9,29.9v-7.1H99c0.8,0,1.5,0.1,2,0.4c0.6,0.3,1,0.7,1.4,1.2c0.3,0.5,0.5,1.2,0.5,1.9
					c0,0.7-0.2,1.3-0.5,1.9c-0.3,0.5-0.8,1-1.4,1.3c-0.6,0.3-1.3,0.4-2,0.4H95.9z M97.2,28.8h1.7c0.5,0,1-0.1,1.4-0.3
					c0.4-0.2,0.7-0.5,0.9-0.9c0.2-0.4,0.3-0.8,0.3-1.3c0-0.5-0.1-0.9-0.3-1.3c-0.2-0.4-0.5-0.6-0.9-0.9c-0.4-0.2-0.9-0.3-1.4-0.3
					h-1.7V28.8z"/>
				<path class="st0" d="M106.9,29.9v-5.2h2.3c0.6,0,1.1,0.1,1.5,0.3c0.4,0.2,0.8,0.5,1,0.9c0.2,0.4,0.4,0.8,0.4,1.4
					c0,0.5-0.1,1-0.4,1.4c-0.2,0.4-0.6,0.7-1,0.9c-0.4,0.2-0.9,0.3-1.5,0.3H106.9z M107.8,29.1h1.3c0.4,0,0.7-0.1,1-0.2
					c0.3-0.1,0.5-0.4,0.7-0.6c0.2-0.3,0.2-0.6,0.2-0.9c0-0.4-0.1-0.7-0.2-0.9c-0.2-0.3-0.4-0.5-0.7-0.6c-0.3-0.1-0.6-0.2-1-0.2h-1.3
					V29.1z"/>
				<path class="st0" d="M114,29.1h2.9v0.8H113v-5.2h3.8v0.8H114V29.1z M113.9,26.9h2.6v0.8h-2.6V26.9z"/>
				<path class="st0" d="M121.1,29.9v-7.1h1.3v6h3.7v1.1H121.1z"/>
				<path class="st0" d="M130.4,30c-0.6,0-1.1-0.1-1.5-0.3c-0.5-0.2-0.9-0.4-1.2-0.8c-0.3-0.3-0.6-0.7-0.8-1.2
					c-0.2-0.4-0.3-0.9-0.3-1.5c0-0.5,0.1-1,0.3-1.5c0.2-0.4,0.5-0.8,0.8-1.2c0.3-0.3,0.8-0.6,1.2-0.8c0.5-0.2,1-0.3,1.5-0.3
					c0.6,0,1.1,0.1,1.5,0.3c0.5,0.2,0.9,0.4,1.2,0.8c0.3,0.3,0.6,0.7,0.8,1.2c0.2,0.4,0.3,0.9,0.3,1.5c0,0.5-0.1,1-0.3,1.5
					c-0.2,0.4-0.5,0.8-0.8,1.2c-0.3,0.3-0.8,0.6-1.2,0.8C131.5,29.9,131,30,130.4,30z M130.4,28.9c0.4,0,0.7-0.1,1-0.2
					c0.3-0.1,0.6-0.3,0.8-0.5c0.2-0.2,0.4-0.5,0.5-0.8c0.1-0.3,0.2-0.6,0.2-1c0-0.4-0.1-0.7-0.2-1c-0.1-0.3-0.3-0.6-0.5-0.8
					c-0.2-0.2-0.5-0.4-0.8-0.5c-0.3-0.1-0.6-0.2-1-0.2s-0.7,0.1-1,0.2c-0.3,0.1-0.6,0.3-0.8,0.5c-0.2,0.2-0.4,0.5-0.5,0.8
					c-0.1,0.3-0.2,0.6-0.2,1c0,0.4,0.1,0.7,0.2,1c0.1,0.3,0.3,0.6,0.5,0.8c0.2,0.2,0.5,0.4,0.8,0.5
					C129.7,28.8,130.1,28.9,130.4,28.9z"/>
				<path class="st0" d="M136.6,30c-0.5,0-0.9-0.1-1.3-0.3c-0.4-0.2-0.7-0.4-0.9-0.8l0.8-0.9c0.2,0.3,0.4,0.5,0.6,0.6
					c0.2,0.1,0.5,0.2,0.8,0.2c0.7,0,1.1-0.4,1.1-1.3v-3.7h-2.5v-1.1h3.9v4.7c0,0.8-0.2,1.5-0.6,1.9C138,29.8,137.4,30,136.6,30z"/>
				<path class="st0" d="M139.8,29.9l3.2-7.1h1.3l3.2,7.1h-1.4l-2.8-6.4h0.5l-2.8,6.4H139.8z M141.2,28.3l0.4-1h3.9l0.4,1H141.2z"/>
			</g>
		</g>
	</g>
	<g>
		<g>
			<path class="st0" d="M53.2,24.8L53.2,24.8c-0.6-1-0.6-2.2,0-3.2c0.8-1.3,0.5-3-0.7-3.9h0c-0.9-0.7-1.3-1.9-1.1-3
				c0.4-1.5-0.5-3-1.9-3.5c-1.1-0.4-1.9-1.3-2-2.5c-0.1-1.5-1.4-2.7-2.9-2.7c-1.2,0-2.2-0.7-2.7-1.7c-0.6-1.4-2.2-2.1-3.6-1.6h0
				c-1.1,0.4-2.3,0.1-3.1-0.8h0c-1-1.1-2.7-1.2-3.9-0.3c-0.9,0.7-2.2,0.8-3.2,0.3h0c-1.3-0.7-3-0.3-3.8,1c-0.6,1-1.8,1.5-2.9,1.3
				c-1.5-0.2-2.9,0.7-3.3,2.2c-0.3,1.1-1.2,2-2.3,2.2c-1.5,0.3-2.5,1.6-2.4,3.1c0.1,1.2-0.5,2.3-1.5,2.8h0c-1.3,0.7-1.9,2.4-1.3,3.7
				c0.5,1.1,0.3,2.3-0.5,3.1v0c-1,1.1-1,2.8,0,3.9v0c0.8,0.8,1,2.1,0.5,3.1c-0.6,1.4,0,3,1.3,3.7c1,0.5,1.6,1.6,1.5,2.8
				c-0.1,1.5,0.9,2.9,2.4,3.1c1.1,0.2,2.1,1,2.4,2.1c0.4,1.5,1.8,2.4,3.3,2.1c1.1-0.2,2.3,0.3,2.9,1.3c0.8,1.3,2.5,1.7,3.8,0.9
				c1-0.6,2.3-0.5,3.2,0.2c1.2,0.9,2.9,0.8,3.9-0.4c0.8-0.9,2-1.2,3.1-0.8c1.4,0.5,3-0.2,3.6-1.6c0.5-1.1,1.5-1.8,2.7-1.8
				c1.5,0,2.8-1.2,2.9-2.7c0.1-1.2,0.8-2.1,1.9-2.5c1.4-0.5,2.2-2,1.9-3.5c-0.3-1.1,0.1-2.3,1-3v0C53.7,27.7,54,26,53.2,24.8z"/>
			<circle class="st1" cx="31.5" cy="23.2" r="17.4"/>
			<circle class="st2" cx="31.5" cy="23.2" r="13"/>
			<g>
				<g>
					<path class="st3" d="M17.9,25.5c0,0.1,0,0.3,0,0.4c0,0.1-0.1,0.3-0.1,0.4c-0.1,0.1-0.2,0.2-0.3,0.3c-0.1,0.1-0.2,0.1-0.4,0.2
						c-0.1,0-0.3,0-0.4,0s-0.2-0.1-0.4-0.2c-0.1-0.1-0.2-0.2-0.3-0.3C16.1,26.1,16,26,16,25.9c0-0.2,0-0.3,0-0.4s0.1-0.3,0.2-0.4
						l0.3,0.2c-0.1,0.1-0.1,0.2-0.1,0.3c0,0.1,0,0.2,0,0.3c0,0.1,0.1,0.2,0.1,0.3c0,0.1,0.1,0.1,0.2,0.2c0.1,0,0.2,0.1,0.2,0.1
						c0.1,0,0.2,0,0.3,0s0.2-0.1,0.3-0.1c0.1,0,0.1-0.1,0.2-0.2c0-0.1,0.1-0.2,0.1-0.2c0-0.1,0-0.2,0-0.3c0-0.1-0.1-0.2-0.1-0.3
						s-0.1-0.1-0.2-0.2l0.2-0.3c0.1,0.1,0.2,0.2,0.3,0.3C17.8,25.2,17.9,25.3,17.9,25.5z"/>
					<path class="st3" d="M17.7,23.6c0,0.1,0,0.3-0.1,0.4c0,0.1-0.1,0.2-0.2,0.3c-0.1,0.1-0.2,0.2-0.3,0.2c-0.1,0.1-0.2,0.1-0.4,0.1
						c-0.1,0-0.3,0-0.4-0.1s-0.2-0.1-0.3-0.2c-0.1-0.1-0.2-0.2-0.2-0.3c-0.1-0.1-0.1-0.3-0.1-0.4c0-0.1,0-0.3,0.1-0.4
						s0.1-0.2,0.2-0.3c0.1-0.1,0.2-0.2,0.3-0.2s0.2-0.1,0.4-0.1c0.1,0,0.3,0,0.4,0.1s0.2,0.1,0.3,0.2c0.1,0.1,0.2,0.2,0.2,0.3
						S17.7,23.4,17.7,23.6z M17.4,23.6c0-0.1,0-0.2-0.1-0.3s-0.1-0.1-0.2-0.2C17.1,23.1,17,23,17,23c-0.1,0-0.2,0-0.3,0
						c-0.1,0-0.2,0-0.3,0.1c-0.1,0-0.1,0.1-0.2,0.2s-0.1,0.1-0.1,0.2c0,0.1,0,0.2,0,0.3s0,0.2,0.1,0.3c0,0.1,0.1,0.1,0.2,0.2
						c0.1,0.1,0.1,0.1,0.2,0.1c0.1,0,0.2,0,0.3,0c0.1,0,0.2,0,0.3-0.1s0.1-0.1,0.2-0.2s0.1-0.1,0.1-0.2S17.4,23.7,17.4,23.6z"/>
					<path class="st3" d="M17.6,22.3L15.7,22l0-0.3l1.5-0.7l0,0.2l-1.3-1l0-0.3l1.9,0.2l0,0.3l-1.4-0.2l0-0.1l1.1,0.8l0,0.2
						l-1.2,0.6l0-0.1l1.4,0.2L17.6,22.3z"/>
					<path class="st3" d="M18,19.7l-1.8-0.5l0.2-0.8c0-0.2,0.1-0.3,0.2-0.4c0.1-0.1,0.2-0.2,0.3-0.2c0.1,0,0.2,0,0.4,0
						c0.1,0,0.2,0.1,0.3,0.2c0.1,0.1,0.1,0.2,0.1,0.3c0,0.1,0,0.3,0,0.4l-0.2,0.6l-0.1-0.2l0.7,0.2L18,19.7z M17.4,19.2l-0.2,0.1
						l0.2-0.6c0-0.2,0-0.3,0-0.4s-0.1-0.2-0.2-0.2c-0.1,0-0.2,0-0.3,0s-0.1,0.2-0.2,0.3l-0.2,0.6l-0.1-0.2L17.4,19.2z"/>
					<path class="st3" d="M18.4,18.2L17,16.7l0.1-0.3l2.1,0l-0.2,0.3l-1.9,0l0.1-0.1l1.3,1.4L18.4,18.2z M18.2,17.7L18,17.5l0.4-0.9
						l0.3,0L18.2,17.7z"/>
					<path class="st3" d="M18.2,14.2C18.2,14.2,18.1,14.2,18.2,14.2c-0.1,0.1-0.2,0.1-0.2,0.1c0,0-0.1,0-0.1,0c0,0-0.1,0-0.1,0.1
						c0,0,0,0.1,0,0.1c0,0,0,0.1,0.1,0.1l-0.1,0.2c-0.1-0.1-0.2-0.1-0.2-0.2s0-0.2,0-0.2c0,0,0.1-0.1,0.1-0.1s0.1,0,0.1,0
						c0,0,0.1,0,0.1,0s0.1,0,0.1,0c0,0,0-0.1,0-0.1s0-0.1-0.1-0.1l0.1-0.2c0.1,0.1,0.1,0.1,0.2,0.2C18.2,14,18.2,14.1,18.2,14.2z
						 M19.4,16.2l-1.6-1l0.2-0.2l1.9-0.2l-0.1,0.1L18.5,14l0.2-0.3l1.6,1L20.1,15l-1.9,0.2l0.1-0.1l1.2,0.8L19.4,16.2z"/>
					<path class="st3" d="M20.6,14.4l-1.5-1.2l0.2-0.3l1.5,1.2L20.6,14.4z"/>
					<path class="st3" d="M20.9,13.9l-0.8-2l0.2-0.3l2,0.7l-0.3,0.3L20.4,12l0.1-0.1l0.7,1.7L20.9,13.9z M20.9,13.3l-0.1-0.3
						l0.7-0.7l0.3,0.1L20.9,13.3z"/>
					<path class="st3" d="M23.1,11.9L22,10.3l0.7-0.5c0.2-0.1,0.3-0.2,0.5-0.2c0.2,0,0.3,0,0.5,0.1c0.2,0.1,0.3,0.2,0.4,0.3
						c0.1,0.2,0.2,0.3,0.2,0.5s0,0.3-0.1,0.5s-0.2,0.3-0.4,0.4L23.1,11.9z M23.2,11.4l0.4-0.3c0.1-0.1,0.2-0.2,0.3-0.3
						s0.1-0.2,0.1-0.3c0-0.1,0-0.2-0.1-0.3c-0.1-0.1-0.2-0.2-0.3-0.2s-0.2-0.1-0.3-0.1c-0.1,0-0.2,0.1-0.4,0.1l-0.4,0.3L23.2,11.4z"
						/>
					<path class="st3" d="M25.1,10.3l1-0.5l0.1,0.3l-1.3,0.6l-0.8-1.7l1.3-0.6l0.1,0.3l-0.9,0.5L25.1,10.3z M24.8,9.5l0.9-0.4
						l0.1,0.3l-0.9,0.4L24.8,9.5z"/>
					<path class="st3" d="M27.7,9.6L27.2,8l-0.6,0.2l-0.1-0.3l1.6-0.4l0.1,0.3l-0.6,0.2L28,9.5L27.7,9.6z"/>
					<path class="st3" d="M28.8,9.3l-0.3-1.9l0.8-0.1c0.2,0,0.3,0,0.4,0s0.2,0.1,0.3,0.2c0.1,0.1,0.1,0.2,0.1,0.3c0,0.1,0,0.3,0,0.4
						c-0.1,0.1-0.1,0.2-0.2,0.3c-0.1,0.1-0.3,0.1-0.4,0.1l-0.6,0.1l0.1-0.2l0.1,0.7L28.8,9.3z M29.1,8.6l-0.2-0.1l0.6-0.1
						c0.2,0,0.3-0.1,0.3-0.1s0.1-0.2,0.1-0.3c0-0.1-0.1-0.2-0.2-0.3s-0.2-0.1-0.4,0l-0.6,0.1l0.1-0.2L29.1,8.6z M30.1,9.1l-0.6-0.6
						l0.4-0.1l0.6,0.6L30.1,9.1z"/>
					<path class="st3" d="M30.5,9l0.9-1.9l0.4,0l0.8,1.9l-0.4,0l-0.7-1.7l0.1,0L30.9,9L30.5,9z M30.9,8.6L31,8.3l1,0l0.1,0.3
						L30.9,8.6z"/>
					<path class="st3" d="M32.7,9.1L33,7.2l0.3,0l1,1.6l-0.1,0l0.2-1.5l0.3,0.1l-0.3,1.9l-0.3,0l-1-1.6l0.1,0l-0.2,1.5L32.7,9.1z"/>
					<path class="st3" d="M35.4,9.6c-0.1,0-0.3-0.1-0.4-0.2s-0.2-0.2-0.3-0.3L35,9c0.1,0.1,0.1,0.2,0.2,0.2s0.2,0.1,0.3,0.2
						c0.1,0,0.2,0,0.2,0c0.1,0,0.1,0,0.2,0c0,0,0.1-0.1,0.1-0.1c0-0.1,0-0.1,0-0.2C36,9,35.9,9,35.8,9s-0.1-0.1-0.2-0.1
						c-0.1,0-0.1-0.1-0.2-0.1s-0.1-0.1-0.2-0.2c-0.1-0.1-0.1-0.1-0.1-0.2c0-0.1,0-0.2,0-0.3c0-0.1,0.1-0.2,0.2-0.3s0.2-0.1,0.3-0.1
						c0.1,0,0.3,0,0.4,0c0.1,0,0.2,0.1,0.3,0.1C36.5,8,36.6,8,36.6,8.1l-0.2,0.2c-0.1-0.1-0.1-0.1-0.2-0.2S36,8.1,36,8
						c-0.1,0-0.2,0-0.2,0s-0.1,0-0.2,0.1s-0.1,0.1-0.1,0.1c0,0.1,0,0.1,0,0.2s0.1,0.1,0.1,0.1c0.1,0,0.1,0.1,0.2,0.1
						c0.1,0,0.1,0.1,0.2,0.1s0.1,0.1,0.2,0.2c0.1,0.1,0.1,0.1,0.1,0.2c0,0.1,0,0.2,0,0.3c0,0.1-0.1,0.2-0.2,0.2
						c-0.1,0.1-0.2,0.1-0.3,0.1C35.8,9.7,35.6,9.7,35.4,9.6z"/>
					<path class="st3" d="M36.5,9.9l0.8-1.8L38,8.5c0.2,0.1,0.3,0.2,0.4,0.3c0.1,0.1,0.1,0.2,0.2,0.3c0,0.1,0,0.2-0.1,0.4
						s-0.1,0.2-0.2,0.3S38,9.9,37.9,9.9c-0.1,0-0.3,0-0.4-0.1l-0.5-0.2l0.2-0.1l-0.3,0.7L36.5,9.9z M37.1,9.5L37,9.2l0.5,0.2
						c0.1,0.1,0.3,0.1,0.4,0.1c0.1,0,0.2-0.1,0.2-0.2c0-0.1,0.1-0.2,0-0.3c0-0.1-0.1-0.2-0.3-0.2l-0.5-0.2l0.2-0.1L37.1,9.5z"/>
					<path class="st3" d="M39,11.3c-0.1-0.1-0.2-0.2-0.3-0.3s-0.1-0.2-0.2-0.4s0-0.3,0-0.4s0.1-0.3,0.1-0.4s0.2-0.2,0.3-0.3
						c0.1-0.1,0.2-0.1,0.4-0.1s0.3,0,0.4,0c0.1,0,0.3,0.1,0.4,0.2c0.1,0.1,0.2,0.2,0.3,0.3c0.1,0.1,0.1,0.2,0.2,0.4s0,0.3,0,0.4
						s-0.1,0.3-0.1,0.4s-0.2,0.2-0.3,0.3s-0.2,0.1-0.4,0.1c-0.1,0-0.3,0-0.4,0S39.1,11.4,39,11.3z M39.2,11c0.1,0.1,0.2,0.1,0.3,0.1
						c0.1,0,0.2,0,0.3,0c0.1,0,0.2-0.1,0.2-0.1c0.1-0.1,0.1-0.1,0.2-0.2c0.1-0.1,0.1-0.2,0.1-0.3c0-0.1,0-0.2,0-0.3
						c0-0.1-0.1-0.2-0.1-0.2C40,10,40,9.9,39.9,9.9c-0.1-0.1-0.2-0.1-0.3-0.1c-0.1,0-0.2,0-0.3,0c-0.1,0-0.2,0.1-0.2,0.1
						c-0.1,0-0.1,0.1-0.2,0.2c-0.1,0.1-0.1,0.2-0.1,0.3s0,0.2,0,0.3c0,0.1,0.1,0.2,0.1,0.2S39.1,11,39.2,11z"/>
					<path class="st3" d="M40.1,12l1.3-1.4l0.6,0.5c0.1,0.1,0.2,0.2,0.3,0.4c0.1,0.1,0.1,0.2,0.1,0.4c0,0.1-0.1,0.2-0.2,0.3
						c-0.1,0.1-0.2,0.2-0.3,0.2c-0.1,0-0.2,0-0.4,0c-0.1,0-0.3-0.1-0.4-0.2l-0.4-0.4l0.2,0l-0.5,0.5L40.1,12z M40.8,11.7l0-0.2
						l0.4,0.4c0.1,0.1,0.2,0.2,0.3,0.2c0.1,0,0.2,0,0.3-0.1c0.1-0.1,0.1-0.2,0.1-0.3s-0.1-0.2-0.2-0.3l-0.4-0.4l0.2,0L40.8,11.7z
						 M41,12.8l0.1-0.8l0.3,0.3l-0.1,0.8L41,12.8z"/>
					<path class="st3" d="M41.8,13.6l1.2-1.1l-0.4-0.5l0.2-0.2l1.1,1.2l-0.2,0.2l-0.4-0.5L42,13.9L41.8,13.6z"/>
					<path class="st3" d="M43,14.7l0.6,0.9l-0.2,0.2l-0.8-1.2l1.6-1.1l0.8,1.2l-0.2,0.2l-0.6-0.9L43,14.7z M43.7,14.2l0.5,0.8
						L44,15.1l-0.5-0.8L43.7,14.2z"/>
					<path class="st3" d="M43.9,16.7l1.8-0.8l0.3,0.7c0.1,0.2,0.1,0.3,0.1,0.4s0,0.3-0.1,0.4c-0.1,0.1-0.2,0.2-0.3,0.2
						c-0.1,0.1-0.3,0.1-0.4,0.1c-0.1,0-0.2-0.1-0.3-0.2c-0.1-0.1-0.2-0.2-0.3-0.4l-0.2-0.5l0.2,0.1L44,17L43.9,16.7z M44.7,16.7
						l0.1-0.2L45,17c0.1,0.1,0.1,0.2,0.2,0.3c0.1,0,0.2,0,0.3,0c0.1,0,0.2-0.1,0.2-0.2c0-0.1,0-0.2-0.1-0.4l-0.2-0.5l0.2,0.1
						L44.7,16.7z"/>
					<path class="st3" d="M45,18.7l0.3,1L45,19.8l-0.4-1.4l1.8-0.5l0.4,1.3l-0.3,0.1l-0.3-1L45,18.7z M45.8,18.4l0.3,0.9l-0.3,0.1
						l-0.3-0.9L45.8,18.4z"/>
					<path class="st3" d="M45.2,20.7c0-0.1,0-0.3,0-0.4s0.1-0.3,0.1-0.3l0.3,0.1c0,0.1-0.1,0.2-0.1,0.3s0,0.2,0,0.4
						c0,0.1,0,0.2,0.1,0.2s0.1,0.1,0.1,0.1c0,0,0.1,0,0.1,0c0.1,0,0.1,0,0.1-0.1c0,0,0-0.1,0.1-0.2c0-0.1,0-0.1,0-0.2
						c0-0.1,0-0.2,0-0.3c0-0.1,0-0.2,0.1-0.2c0-0.1,0.1-0.1,0.1-0.2c0.1-0.1,0.1-0.1,0.2-0.1c0.1,0,0.2,0,0.3,0s0.2,0.1,0.2,0.2
						s0.1,0.2,0.1,0.4c0,0.1,0,0.2,0,0.3c0,0.1,0,0.2-0.1,0.3l-0.3-0.1c0-0.1,0.1-0.2,0.1-0.3c0-0.1,0-0.2,0-0.3
						c0-0.1,0-0.2-0.1-0.2c0-0.1-0.1-0.1-0.1-0.1c0,0-0.1,0-0.1,0c-0.1,0-0.1,0-0.1,0.1c0,0,0,0.1-0.1,0.2s0,0.1,0,0.2
						c0,0.1,0,0.2,0,0.3c0,0.1,0,0.2-0.1,0.2c0,0.1-0.1,0.1-0.1,0.2s-0.1,0.1-0.2,0.1c-0.1,0-0.2,0-0.3,0s-0.2-0.1-0.2-0.2
						C45.2,21.1,45.2,20.9,45.2,20.7z"/>
					<path class="st3" d="M45.3,21.5l1.9,0.8l0,0.4l-1.9,0.9l0-0.4l1.7-0.8l0,0.1l-1.7-0.7L45.3,21.5z M45.8,21.9l0.3,0.1l0,1
						l-0.3,0.1L45.8,21.9z"/>
					<path class="st3" d="M45.3,23.8l1.9,0.2l-0.1,0.8c0,0.2-0.1,0.4-0.2,0.5c-0.1,0.1-0.2,0.3-0.4,0.3c-0.2,0.1-0.3,0.1-0.5,0.1
						c-0.2,0-0.4-0.1-0.5-0.2c-0.1-0.1-0.2-0.2-0.3-0.4s-0.1-0.4,0-0.6L45.3,23.8z M45.6,24.2l-0.1,0.5c0,0.1,0,0.3,0,0.4
						s0.1,0.2,0.2,0.3c0.1,0.1,0.2,0.1,0.3,0.1c0.1,0,0.3,0,0.4,0c0.1,0,0.2-0.1,0.3-0.2s0.1-0.2,0.1-0.4l0.1-0.5L45.6,24.2z"/>
					<path class="st3" d="M44.7,26.8c0-0.1,0.1-0.3,0.2-0.4c0.1-0.1,0.2-0.2,0.3-0.3c0.1-0.1,0.2-0.1,0.4-0.1c0.1,0,0.3,0,0.4,0
						c0.1,0,0.3,0.1,0.4,0.2c0.1,0.1,0.2,0.2,0.2,0.3c0.1,0.1,0.1,0.2,0.1,0.4c0,0.1,0,0.3,0,0.4c0,0.1-0.1,0.3-0.2,0.4
						S46.3,28,46.2,28c-0.1,0.1-0.2,0.1-0.4,0.1c-0.1,0-0.3,0-0.4,0S45.1,28,45,27.9c-0.1-0.1-0.2-0.2-0.2-0.3s-0.1-0.2-0.1-0.4
						C44.7,27.1,44.7,27,44.7,26.8z M45,26.9c0,0.1,0,0.2,0,0.3c0,0.1,0,0.2,0.1,0.2s0.1,0.1,0.2,0.2c0.1,0.1,0.1,0.1,0.2,0.1
						c0.1,0,0.2,0,0.3,0s0.2,0,0.2-0.1c0.1,0,0.1-0.1,0.2-0.2c0.1-0.1,0.1-0.2,0.1-0.2c0-0.1,0-0.2,0-0.3c0-0.1,0-0.2-0.1-0.2
						c0-0.1-0.1-0.1-0.2-0.2c-0.1-0.1-0.1-0.1-0.2-0.1c-0.1,0-0.2,0-0.3,0c-0.1,0-0.2,0-0.2,0.1c-0.1,0-0.1,0.1-0.2,0.2
						C45.1,26.7,45.1,26.8,45,26.9z"/>
				</g>
			</g>
		</g>
		<g>
			<g>
				<g>
					<path class="st0" d="M52.5,38.5c0,0,3.8,1.6,6,3.5l-4.4,0.8l0.3,3.6c0,0-4.9-3-11-5.5c0,0,5.8-0.8,7.5-0.5L52.5,38.5z"/>
					<polygon class="st1" points="51.9,41.4 43.4,40.8 46.4,38.6 					"/>
				</g>
				<g>
					<path class="st0" d="M10.5,39c0,0-3.8,1.6-6,3.5l4.4,0.8l-0.3,3.6c0,0,4.9-3,11-5.5c0,0-5.8-0.8-7.5-0.5L10.5,39z"/>
					<polygon class="st1" points="11.6,41.1 19.6,41.4 17.1,38.4 					"/>
				</g>
				<path class="st4" d="M8.6,35.6l3,5.5c0,0,17.8-11.2,40.3,0.3l3-5.5C54.9,35.9,33.6,23.8,8.6,35.6z"/>
			</g>
			<g>
				<path class="st3" d="M15.3,37.6c-0.2,0.1-0.4,0.1-0.7,0.1c-0.2,0-0.4,0-0.6-0.1s-0.4-0.2-0.5-0.4c-0.1-0.2-0.3-0.3-0.3-0.5
					c-0.1-0.2-0.1-0.4-0.1-0.6s0.1-0.4,0.2-0.6c0.1-0.2,0.2-0.3,0.4-0.5c0.2-0.1,0.4-0.3,0.6-0.3c0.2-0.1,0.5-0.1,0.7-0.1
					c0.2,0,0.4,0.1,0.6,0.2l-0.2,0.5C15.2,35,15,35,14.9,35c-0.1,0-0.3,0-0.5,0.1c-0.2,0.1-0.3,0.1-0.4,0.2
					c-0.1,0.1-0.2,0.2-0.2,0.3c-0.1,0.1-0.1,0.3-0.1,0.4c0,0.1,0,0.3,0.1,0.4c0.1,0.1,0.1,0.3,0.2,0.4c0.1,0.1,0.2,0.2,0.3,0.2
					c0.1,0.1,0.3,0.1,0.4,0.1c0.1,0,0.3,0,0.4-0.1c0.2-0.1,0.3-0.1,0.4-0.2c0.1-0.1,0.2-0.2,0.3-0.4l0.5,0.2
					c-0.1,0.2-0.2,0.4-0.4,0.5C15.8,37.3,15.6,37.5,15.3,37.6z"/>
				<path class="st3" d="M16.9,37L16,34l0.5-0.2l0.9,2.9L16.9,37z"/>
				<path class="st3" d="M19.5,36.3c-0.4,0.1-0.8,0.1-1-0.1c-0.3-0.2-0.5-0.5-0.6-0.9l-0.4-1.7l0.6-0.1l0.4,1.7
					c0.1,0.3,0.2,0.5,0.4,0.6c0.2,0.1,0.4,0.1,0.6,0.1c0.2-0.1,0.4-0.2,0.5-0.3c0.1-0.2,0.1-0.4,0-0.7l-0.4-1.7l0.5-0.1l0.4,1.7
					c0.1,0.4,0.1,0.8-0.1,1.1C20.2,36,19.9,36.2,19.5,36.3z"/>
				<path class="st3" d="M21.5,35.8l-0.5-3l1.3-0.2c0.3-0.1,0.6,0,0.9,0c0.3,0.1,0.5,0.2,0.7,0.4s0.3,0.5,0.3,0.8
					c0.1,0.3,0,0.6-0.1,0.8c-0.1,0.3-0.3,0.5-0.5,0.6c-0.2,0.2-0.5,0.3-0.8,0.3L21.5,35.8z M22,35.2l0.7-0.1c0.2,0,0.4-0.1,0.6-0.2
					c0.2-0.1,0.3-0.3,0.3-0.4c0.1-0.2,0.1-0.4,0-0.6c0-0.2-0.1-0.4-0.2-0.5c-0.1-0.1-0.3-0.2-0.4-0.3c-0.2-0.1-0.4-0.1-0.6,0
					l-0.7,0.1L22,35.2z"/>
				<path class="st3" d="M24.6,35.2l1-3.2l0.6-0.1l1.7,2.9l-0.6,0.1l-1.5-2.6l0.2,0l-0.9,2.9L24.6,35.2z M25.1,34.4l0.1-0.5l1.6-0.2
					l0.2,0.4L25.1,34.4z"/>
				<path class="st3" d="M28.2,34.9l-0.1-3.1l1.3,0c0.3,0,0.6,0,0.9,0.2c0.3,0.1,0.5,0.3,0.6,0.5c0.1,0.2,0.2,0.5,0.2,0.8
					c0,0.3,0,0.6-0.2,0.8c-0.1,0.2-0.3,0.4-0.6,0.6c-0.2,0.1-0.5,0.2-0.9,0.2L28.2,34.9z M28.8,34.3l0.7,0c0.2,0,0.4-0.1,0.6-0.2
					c0.2-0.1,0.3-0.2,0.4-0.4s0.1-0.3,0.1-0.6c0-0.2-0.1-0.4-0.2-0.5c-0.1-0.2-0.2-0.3-0.4-0.4c-0.2-0.1-0.4-0.1-0.6-0.1l-0.7,0
					L28.8,34.3z"/>
				<path class="st3" d="M32.8,34.8l0.1-2.3l1,0.1c0.2,0,0.5,0.1,0.6,0.2c0.2,0.1,0.3,0.2,0.4,0.4c0.1,0.2,0.1,0.4,0.1,0.6
					c0,0.2-0.1,0.4-0.2,0.6c-0.1,0.2-0.3,0.3-0.5,0.4c-0.2,0.1-0.4,0.1-0.7,0.1L32.8,34.8z M33.3,34.4l0.6,0c0.2,0,0.3,0,0.5-0.1
					c0.1-0.1,0.2-0.1,0.3-0.3c0.1-0.1,0.1-0.3,0.1-0.4c0-0.2,0-0.3-0.1-0.4c-0.1-0.1-0.2-0.2-0.3-0.3c-0.1-0.1-0.3-0.1-0.4-0.1
					l-0.6,0L33.3,34.4z"/>
				<path class="st3" d="M35.9,34.6l1.3,0.1l0,0.4l-1.7-0.2l0.2-2.3l1.7,0.2l0,0.4l-1.2-0.1L35.9,34.6z M36,33.7l1.1,0.1l0,0.3
					L36,34L36,33.7z"/>
				<path class="st3" d="M38.8,35.4l0.6-3l0.6,0.1L39.5,35l1.6,0.3L41,35.8L38.8,35.4z"/>
				<path class="st3" d="M42.7,36.3c-0.2-0.1-0.4-0.2-0.6-0.3c-0.2-0.1-0.3-0.3-0.4-0.5c-0.1-0.2-0.2-0.4-0.2-0.6c0-0.2,0-0.4,0-0.6
					c0.1-0.2,0.2-0.4,0.3-0.6c0.1-0.2,0.3-0.3,0.5-0.4c0.2-0.1,0.4-0.2,0.6-0.2c0.2,0,0.4,0,0.7,0.1c0.2,0.1,0.4,0.2,0.6,0.3
					c0.2,0.1,0.3,0.3,0.4,0.5c0.1,0.2,0.2,0.4,0.2,0.6c0,0.2,0,0.4,0,0.6c-0.1,0.2-0.2,0.4-0.3,0.6s-0.3,0.3-0.5,0.4
					c-0.2,0.1-0.4,0.2-0.6,0.2C43.1,36.3,42.9,36.3,42.7,36.3z M42.8,35.8c0.1,0,0.3,0,0.4,0c0.1,0,0.3-0.1,0.4-0.1
					c0.1-0.1,0.2-0.2,0.3-0.3c0.1-0.1,0.1-0.2,0.2-0.4c0-0.2,0.1-0.3,0-0.4s-0.1-0.3-0.1-0.4c-0.1-0.1-0.2-0.2-0.3-0.3
					c-0.1-0.1-0.2-0.1-0.4-0.2c-0.1,0-0.3,0-0.4,0c-0.1,0-0.3,0.1-0.4,0.1c-0.1,0.1-0.2,0.2-0.3,0.3c-0.1,0.1-0.1,0.2-0.2,0.4
					c0,0.1,0,0.3,0,0.4c0,0.1,0.1,0.3,0.1,0.4c0.1,0.1,0.2,0.2,0.3,0.3C42.5,35.7,42.7,35.7,42.8,35.8z"/>
				<path class="st3" d="M45.2,37c-0.2-0.1-0.3-0.2-0.5-0.3c-0.1-0.1-0.2-0.3-0.3-0.4l0.4-0.3c0,0.1,0.1,0.3,0.2,0.3
					c0.1,0.1,0.2,0.1,0.3,0.2c0.3,0.1,0.5,0,0.6-0.4l0.5-1.5l-1-0.3l0.2-0.5l1.6,0.5l-0.6,1.9c-0.1,0.3-0.3,0.6-0.5,0.7
					C45.8,37.1,45.5,37.1,45.2,37z"/>
				<path class="st3" d="M46.4,37.3l2.4-2.3l0.5,0.2l0.1,3.4L49,38.4l-0.1-3l0.2,0.1L47,37.6L46.4,37.3z M47.3,36.9l0.3-0.4l1.5,0.6
					l0,0.5L47.3,36.9z"/>
			</g>
		</g>
		
			<image style="overflow:visible;" width="1196" height="1155" xlink:href="3ABB89CE.png"  transform="matrix(1.627878e-02 0 0 1.627878e-02 21.2806 11.8793)">
		</image>
	</g>
</g>
</svg>
